<svg xmlns="http://www.w3.org/2000/svg" width="14.316" height="13.244" viewBox="0 0 14.316 13.244">
  <g id="Icon_ionic-ios-star-empty" data-name="Icon ionic-ios-star-empty" transform="translate(-2.24 -3.375)" fill="none">
    <path d="M16.006,8.055h-4.68L9.95,3.65c-.07-.206-.332-.275-.551-.275s-.481.069-.551.275l-1.376,4.4H2.793c-.279,0-.551,0-.551.275,0,.029-.006.25,0,.275.006.111.12.152.275.275l3.854,2.753L4.72,15.762A1.029,1.029,0,0,0,5,16.588c.092.067.168,0,.275,0s.187.06.275,0L9.4,13.835l3.579,2.753c.089.063.446,0,.551,0s.187.07.275,0c.177-.133.073-.617,0-.826l-1.376-4.129L16.281,8.88h0a1.388,1.388,0,0,0,.275-.551C16.557,8.051,16.285,8.055,16.006,8.055Z" stroke="none"/>
    <path d="M 9.399665832519531 5.24116325378418 L 8.207945823669434 9.054656028747559 L 4.482160568237305 9.054656028747559 L 7.591686248779297 11.27575588226318 L 6.123281478881836 14.94678497314453 L 9.421726226806641 12.59074592590332 L 12.47585773468018 14.94008445739746 L 11.24541568756104 11.24877643585205 L 14.31716728210449 9.054656028747559 L 10.59138584136963 9.054656028747559 L 9.399665832519531 5.24116325378418 M 9.399665832519531 3.374996185302734 C 9.618315696716309 3.374996185302734 9.880496025085449 3.444305419921875 9.95020580291748 3.650276184082031 L 11.32657623291016 8.054656028747559 L 16.00619506835938 8.054656028747559 C 16.28504943847656 8.054667472839355 16.5567455291748 8.051074981689453 16.5567455291748 8.329926490783691 C 16.5567455291748 8.459846496582031 16.36386489868164 8.791746139526367 16.28147506713867 8.880475997924805 L 12.42765617370605 11.63321590423584 L 13.80402565002441 15.76231575012207 C 13.87690544128418 15.97145652770996 13.98147583007812 16.45505523681641 13.80402565002441 16.58813667297363 C 13.71529674530029 16.65785598754883 13.6364860534668 16.58813667297363 13.52874565124512 16.58813667297363 C 13.42418575286865 16.58813667297363 13.06693553924561 16.65151596069336 12.97820568084717 16.58813667297363 L 9.399665832519531 13.83540630340576 L 5.545855522155762 16.58813667297363 C 5.457126617431641 16.64834403991699 5.375146865844727 16.58813667297363 5.270575523376465 16.58813667297363 C 5.162846565246582 16.58813667297363 5.087206840515137 16.65468788146973 4.995306015014648 16.58813667297363 C 4.821025848388672 16.45505523681641 4.64715576171875 15.96828651428223 4.720035552978516 15.76231575012207 L 6.371665954589844 11.63321590423584 L 2.517856597900391 8.880475997924805 C 2.362585067749023 8.756896018981934 2.248926162719727 8.716106414794922 2.242586135864258 8.605195999145508 C 2.236246109008789 8.579846382141113 2.242586135864258 8.35844612121582 2.242586135864258 8.329926490783691 C 2.242586135864258 8.051077842712402 2.514259338378906 8.054673194885254 2.793126106262207 8.054656028747559 L 7.472755432128906 8.054656028747559 L 8.849125862121582 3.650276184082031 C 8.918835639953613 3.444305419921875 9.181015968322754 3.374996185302734 9.399665832519531 3.374996185302734 Z" stroke="none" fill="#fea124"/>
  </g>
</svg>
