<svg xmlns="http://www.w3.org/2000/svg" width="14.316" height="13.244" viewBox="0 0 14.316 13.244">
  <path id="Icon_ionic-ios-star-full" data-name="Icon ionic-ios-star-full" d="M16.006,8.055h-4.68L9.95,3.65c-.07-.206-.332-.275-.551-.275s-.481.069-.551.275l-1.376,4.4H2.793c-.279,0-.551,0-.551.275,0,.029-.006.25,0,.275.006.111.12.152.275.275l3.854,2.753L4.72,15.762A1.029,1.029,0,0,0,5,16.588c.092.067.168,0,.275,0s.187.06.275,0L9.4,13.835l3.579,2.753c.089.063.446,0,.551,0s.187.07.275,0c.177-.133.073-.617,0-.826l-1.376-4.129L16.281,8.88h0a1.388,1.388,0,0,0,.275-.551C16.557,8.051,16.285,8.055,16.006,8.055Z" transform="translate(-2.24 -3.375)" fill="#fea124"/>
</svg>
